<?xml version="1.0" encoding="UTF-8" standalone="no"?>
<!-- Created with Inkscape (http://www.inkscape.org/) -->

<svg
   xmlns:dc="http://purl.org/dc/elements/1.1/"
   xmlns:cc="http://creativecommons.org/ns#"
   xmlns:rdf="http://www.w3.org/1999/02/22-rdf-syntax-ns#"
   xmlns:svg="http://www.w3.org/2000/svg"
   xmlns="http://www.w3.org/2000/svg"
   xmlns:sodipodi="http://sodipodi.sourceforge.net/DTD/sodipodi-0.dtd"
   xmlns:inkscape="http://www.inkscape.org/namespaces/inkscape"
   width="512"
   height="512"
   viewBox="0 0 135.46666 135.46667"
   version="1.1"
   id="svg8"
   sodipodi:docname="icon_select.svg"
   inkscape:version="0.92.4 (5da689c313, 2019-01-14)">
  <defs
     id="defs2" />
  <sodipodi:namedview
     id="base"
     pagecolor="#ffffff"
     bordercolor="#666666"
     borderopacity="1.0"
     inkscape:pageopacity="0.0"
     inkscape:pageshadow="2"
     inkscape:zoom="0.5"
     inkscape:cx="-68.292007"
     inkscape:cy="239.76114"
     inkscape:document-units="mm"
     inkscape:current-layer="layer1"
     showgrid="true"
     units="px"
     inkscape:snap-global="false"
     inkscape:window-width="1920"
     inkscape:window-height="1057"
     inkscape:window-x="-8"
     inkscape:window-y="1072"
     inkscape:window-maximized="1">
    <inkscape:grid
       type="xygrid"
       id="grid3713"
       spacingx="16.933333"
       spacingy="16.933333" />
  </sodipodi:namedview>
  <metadata
     id="metadata5">
    <rdf:RDF>
      <cc:Work
         rdf:about="">
        <dc:format>image/svg+xml</dc:format>
        <dc:type
           rdf:resource="http://purl.org/dc/dcmitype/StillImage" />
        <dc:title />
      </cc:Work>
    </rdf:RDF>
  </metadata>
  <g
     inkscape:label="Layer 1"
     inkscape:groupmode="layer"
     id="layer1"
     transform="translate(0,-161.53331)">
    <rect
       ry="20.143642"
       y="164.15251"
       x="2.6192667"
       height="130.22816"
       width="130.22813"
       id="rect3808"
       style="fill:#999999;fill-opacity:1;stroke-width:2.03481483" />
    <path
       style="fill:#b3b3b3;fill-opacity:1;stroke-width:0.9191978"
       d="m 190.68941,283.22798 c -1.64309,-0.71414 -2.98741,-1.50506 -2.98741,-1.7576 0,-0.25256 -0.60982,-2.80029 -1.35512,-5.66172 -0.74531,-2.8614 -2.40917,-14.15327 -3.69752,-25.09297 -1.28831,-10.93973 -3.14034,-26.09498 -4.11556,-33.67835 -4.2792,-33.27515 -4.37467,-37.22753 -0.89925,-37.22753 3.58114,0 12.77425,5.55653 28.57023,17.26846 8.78192,6.51136 24.51946,17.8955 34.97226,25.29811 10.45283,7.40262 19.27205,13.89119 19.59831,14.41908 0.32622,0.52786 0.15321,2.29599 -0.38455,3.92918 l -0.97769,2.96944 -8.87422,-0.29599 c -7.46087,-0.24875 -10.06046,0.074 -16.32259,2.02792 -8.99175,2.8055 -17.34263,7.7115 -23.60468,13.86731 -4.95742,4.87334 -11.66771,14.97887 -14.20911,21.39855 -1.73262,4.3766 -1.60699,4.32085 -5.7131,2.53618 z"
       id="path33"
       inkscape:connector-curvature="0" />
    <path
       style="fill:#ffffff;stroke-width:1.17212415"
       d="m 110.04368,181.3482 c -7.61135,-6.27297 -18.957319,-7.27766 -26.411642,-1.17814 -1.597201,1.30691 -5.498225,5.1873 -8.668507,8.62298 -5.247953,5.68725 -6.045048,6.15985 -8.89977,5.27952 -3.493996,-1.07745 -4.05763,-0.71918 -11.673807,7.42091 -4.859969,5.19429 -5.112982,6.78516 -1.673513,10.51305 l 2.322805,2.51721 -18.395617,22.23377 c -5.296292,6.30832 -12.63935,14.13398 -11.558496,22.41277 0.515376,3.58294 -1.831129,12.55403 -3.322617,12.70302 -2.14405,0.21419 -0.13809,4.64181 3.290984,7.2637 4.18034,3.19633 5.466897,3.29192 7.881136,0.58648 1.081045,-1.21146 4.928491,-2.42362 10.200861,-3.21416 4.717561,-0.70736 9.40324,-2.10817 10.583906,-3.16373 7.272004,-7.18715 15.074217,-15.89954 22.241091,-24.3147 6.658662,-7.85044 7.167493,-8.20905 9.438021,-6.6484 4.043018,2.77891 7.362271,1.42048 13.089339,-5.35771 5.299736,-6.27245 5.359286,-6.44416 3.459826,-9.98128 l -1.93249,-3.59936 8.15606,-9.73689 c 6.63626,-7.92251 8.31488,-10.78919 9.00712,-15.38138 0.74113,-4.91659 0.51074,-6.27095 -1.78708,-10.50969 -1.3781,-2.54218 -3.21644,-4.71154 -5.34761,-6.46797 z m -45.801608,43.95399 c 0.116169,0.0906 0.237464,0.18958 0.364605,0.29734 0.924867,0.78345 2.158351,2.0243 3.943567,3.82559 l 5.755326,5.80737 -2.921794,3.79426 -4.34e-4,-3.5e-4 c -1.607171,2.08678 -3.230249,3.75256 -3.607117,3.70103 -0.376952,-0.0514 -5.260365,-0.0703 -10.8518,-0.0424 -5.591432,0.0279 -10.419484,-0.11785 -10.729727,-0.32424 -0.525389,-0.3495 8.755386,-11.06536 14.191276,-16.38536 1.540951,-1.50812 2.113911,-2.03356 3.856088,-0.67321 z"
       id="path835"
       inkscape:connector-curvature="0"
       sodipodi:nodetypes="sccccccccccccccccccsccsccccccccccc" />
  </g>
</svg>
