<?xml version="1.0" encoding="UTF-8" standalone="no"?>
<!-- Created with Inkscape (http://www.inkscape.org/) -->

<svg
   xmlns:dc="http://purl.org/dc/elements/1.1/"
   xmlns:cc="http://creativecommons.org/ns#"
   xmlns:rdf="http://www.w3.org/1999/02/22-rdf-syntax-ns#"
   xmlns:svg="http://www.w3.org/2000/svg"
   xmlns="http://www.w3.org/2000/svg"
   xmlns:sodipodi="http://sodipodi.sourceforge.net/DTD/sodipodi-0.dtd"
   xmlns:inkscape="http://www.inkscape.org/namespaces/inkscape"
   width="32"
   height="32"
   viewBox="0 0 8.4666662 8.4666669"
   version="1.1"
   id="svg8"
   sodipodi:docname="icon_blur.svg"
   inkscape:version="0.92.4 (5da689c313, 2019-01-14)">
  <defs
     id="defs2" />
  <sodipodi:namedview
     id="base"
     pagecolor="#ffffff"
     bordercolor="#666666"
     borderopacity="1.0"
     inkscape:pageopacity="0.0"
     inkscape:pageshadow="2"
     inkscape:zoom="4"
     inkscape:cx="42.951486"
     inkscape:cy="0.14585885"
     inkscape:document-units="mm"
     inkscape:current-layer="layer1"
     showgrid="true"
     units="px"
     inkscape:snap-global="true"
     inkscape:window-width="1920"
     inkscape:window-height="1057"
     inkscape:window-x="1912"
     inkscape:window-y="-8"
     inkscape:window-maximized="1">
    <inkscape:grid
       type="xygrid"
       id="grid3713"
       spacingx="2.1166666"
       spacingy="2.1166666" />
  </sodipodi:namedview>
  <metadata
     id="metadata5">
    <rdf:RDF>
      <cc:Work
         rdf:about="">
        <dc:format>image/svg+xml</dc:format>
        <dc:type
           rdf:resource="http://purl.org/dc/dcmitype/StillImage" />
        <dc:title></dc:title>
      </cc:Work>
    </rdf:RDF>
  </metadata>
  <g
     inkscape:label="Layer 1"
     inkscape:groupmode="layer"
     id="layer1"
     transform="translate(0,-288.53331)">
    <g
       transform="matrix(0.06501411,0,0,0.06501418,-0.17028986,277.86107)"
       id="layer1-4"
       inkscape:label="Layer 1">
      <rect
         ry="20.143642"
         y="164.15251"
         x="2.6192737"
         height="130.22816"
         width="130.22813"
         id="rect3810"
         style="fill:#999999;fill-opacity:1;stroke-width:2.03481483" />
      <path
         inkscape:connector-curvature="0"
         id="path3794"
         d="m 53.069064,278.42997 c -9.867566,-2.44886 -19.557655,-12.06738 -23.495208,-23.32171 -2.211905,-6.32217 -2.186195,-16.07444 0.06229,-23.64603 1.542373,-5.19356 13.13881,-23.81583 21.064828,-33.82705 1.302425,-1.6451 4.132826,-5.60932 6.28972,-8.80939 5.251667,-7.79147 7.460011,-10.04867 9.831143,-10.04867 1.860073,0 6.51527,5.80513 20.476786,25.53485 2.742782,3.876 6.364242,8.84977 8.047677,11.05291 5.34273,6.9921 9.88036,18.00986 10.60262,25.74411 1.27968,13.7041 -7.350765,28.78452 -20.235061,35.35763 -3.553882,1.813 -7.154216,2.40725 -16.359795,2.70011 -6.491714,0.20688 -13.819993,-0.12536 -16.285004,-0.73676 z"
         style="fill:#ffffff;fill-opacity:1;stroke-width:1.12046897" />
    </g>
  </g>
</svg>
