<?xml version="1.0" encoding="UTF-8" standalone="no"?>
<!-- Created with Inkscape (http://www.inkscape.org/) -->

<svg
   xmlns:dc="http://purl.org/dc/elements/1.1/"
   xmlns:cc="http://creativecommons.org/ns#"
   xmlns:rdf="http://www.w3.org/1999/02/22-rdf-syntax-ns#"
   xmlns:svg="http://www.w3.org/2000/svg"
   xmlns="http://www.w3.org/2000/svg"
   xmlns:sodipodi="http://sodipodi.sourceforge.net/DTD/sodipodi-0.dtd"
   xmlns:inkscape="http://www.inkscape.org/namespaces/inkscape"
   width="512"
   height="512"
   viewBox="0 0 135.46666 135.46667"
   version="1.1"
   id="svg8"
   sodipodi:docname="icon_duplicate.svg"
   inkscape:version="0.92.4 (5da689c313, 2019-01-14)">
  <defs
     id="defs2" />
  <sodipodi:namedview
     id="base"
     pagecolor="#ffffff"
     bordercolor="#666666"
     borderopacity="1.0"
     inkscape:pageopacity="0.0"
     inkscape:pageshadow="2"
     inkscape:zoom="0.5"
     inkscape:cx="163.57262"
     inkscape:cy="279.8537"
     inkscape:document-units="mm"
     inkscape:current-layer="layer1"
     showgrid="true"
     units="px"
     inkscape:snap-global="false"
     inkscape:window-width="1920"
     inkscape:window-height="1057"
     inkscape:window-x="-8"
     inkscape:window-y="1072"
     inkscape:window-maximized="1">
    <inkscape:grid
       type="xygrid"
       id="grid3713"
       spacingx="16.933333"
       spacingy="16.933333" />
  </sodipodi:namedview>
  <metadata
     id="metadata5">
    <rdf:RDF>
      <cc:Work
         rdf:about="">
        <dc:format>image/svg+xml</dc:format>
        <dc:type
           rdf:resource="http://purl.org/dc/dcmitype/StillImage" />
        <dc:title />
      </cc:Work>
    </rdf:RDF>
  </metadata>
  <g
     inkscape:label="Layer 1"
     inkscape:groupmode="layer"
     id="layer1"
     transform="translate(0,-161.53331)">
    <rect
       ry="20.143642"
       y="164.15251"
       x="2.6192667"
       height="130.22816"
       width="130.22813"
       id="rect3808"
       style="fill:#999999;fill-opacity:1;stroke-width:2.03481483" />
    <path
       style="fill:#b3b3b3;fill-opacity:1;stroke-width:0.9191978"
       d="m 190.68941,283.22798 c -1.64309,-0.71414 -2.98741,-1.50506 -2.98741,-1.7576 0,-0.25256 -0.60982,-2.80029 -1.35512,-5.66172 -0.74531,-2.8614 -2.40917,-14.15327 -3.69752,-25.09297 -1.28831,-10.93973 -3.14034,-26.09498 -4.11556,-33.67835 -4.2792,-33.27515 -4.37467,-37.22753 -0.89925,-37.22753 3.58114,0 12.77425,5.55653 28.57023,17.26846 8.78192,6.51136 24.51946,17.8955 34.97226,25.29811 10.45283,7.40262 19.27205,13.89119 19.59831,14.41908 0.32622,0.52786 0.15321,2.29599 -0.38455,3.92918 l -0.97769,2.96944 -8.87422,-0.29599 c -7.46087,-0.24875 -10.06046,0.074 -16.32259,2.02792 -8.99175,2.8055 -17.34263,7.7115 -23.60468,13.86731 -4.95742,4.87334 -11.66771,14.97887 -14.20911,21.39855 -1.73262,4.3766 -1.60699,4.32085 -5.7131,2.53618 z"
       id="path33"
       inkscape:connector-curvature="0" />
    <rect
       ry="12.326858"
       y="183.32416"
       x="50.208138"
       height="68.834259"
       width="63.068176"
       id="rect847"
       style="fill:none;fill-opacity:1;stroke:#ffffff;stroke-width:16.8066082;stroke-linecap:round;stroke-linejoin:round;stroke-miterlimit:4;stroke-dasharray:none;stroke-opacity:1;paint-order:stroke fill markers" />
    <rect
       style="fill:#999999;fill-opacity:1;stroke:#ffffff;stroke-width:16.80661011;stroke-linecap:round;stroke-linejoin:round;stroke-miterlimit:4;stroke-dasharray:none;stroke-opacity:1;paint-order:fill markers stroke"
       id="rect843"
       width="63.068176"
       height="68.834259"
       x="23.304922"
       y="207.58115"
       ry="12.326858" />
    <path
       style="fill:none;stroke:#ffffff;stroke-width:13.3894453;stroke-linecap:round;stroke-linejoin:miter;stroke-miterlimit:4;stroke-dasharray:none;stroke-opacity:1"
       d="M 42.239325,241.25569 H 67.655883"
       id="path849"
       inkscape:connector-curvature="0"
       sodipodi:nodetypes="cc" />
    <path
       sodipodi:nodetypes="cc"
       inkscape:connector-curvature="0"
       id="path868"
       d="m 54.947604,228.54741 v 25.41656"
       style="fill:none;stroke:#ffffff;stroke-width:13.3894453;stroke-linecap:round;stroke-linejoin:miter;stroke-miterlimit:4;stroke-dasharray:none;stroke-opacity:1" />
  </g>
</svg>
