<svg width="14" height="14" viewBox="0 0 14 14" fill="none" xmlns="http://www.w3.org/2000/svg">
<path d="M7 0C5.14348 0 3.36301 0.737498 2.05025 2.05025C0.737498 3.36301 0 5.14348 0 7C0 8.85652 0.737498 10.637 2.05025 11.9497C3.36301 13.2625 5.14348 14 7 14C8.85652 14 10.637 13.2625 11.9497 11.9497C13.2625 10.637 14 8.85652 14 7C14 5.14348 13.2625 3.36301 11.9497 2.05025C10.637 0.737498 8.85652 0 7 0ZM7 2.33333C8.23768 2.33333 9.42466 2.825 10.2998 3.70017C11.175 4.57534 11.6667 5.76232 11.6667 7C11.6667 8.23768 11.175 9.42466 10.2998 10.2998C9.42466 11.175 8.23768 11.6667 7 11.6667C5.76232 11.6667 4.57534 11.175 3.70017 10.2998C2.825 9.42466 2.33333 8.23768 2.33333 7C2.33333 5.76232 2.825 4.57534 3.70017 3.70017C4.57534 2.825 5.76232 2.33333 7 2.33333Z" fill="#E0E0E0"/>
<path d="M12 4C12.495 5.23758 12.6225 6.59769 12.625 7.65574C12.6278 8.85934 12.0425 9.95751 11.1914 10.8086V10.8086C10.1084 11.8916 8.63957 12.5 7.10799 12.5H6.45528C5.51496 12.5 4.6044 12.1703 3.88202 11.5684L3.79159 11.493C2.69132 10.5761 2.19522 9.12152 2.50591 7.7234V7.7234C2.81038 6.35331 3.84049 5.25986 5.19 4.87428L5.7459 4.71546C6.23475 4.57579 6.75614 4.60245 7.22818 4.79127L7.26454 4.80581C8.27028 5.20811 8.84587 6.27067 8.63343 7.33285L8.55856 7.7072C8.52038 7.89812 8.42653 8.07347 8.28886 8.21114L8.25888 8.24112C8.09312 8.40688 7.8683 8.5 7.63388 8.5H7.13361C6.53077 8.5 6.22886 7.77114 6.65514 7.34486V7.34486C6.86109 7.13891 7.17571 7.08786 7.43622 7.21811L8 7.5" stroke="#E0E0E0" stroke-width="2.1"/>
</svg>
